<svg xmlns="http://www.w3.org/2000/svg" width="192" height="192" viewBox="0 0 192 192">
  <g id="Group_2" data-name="Group 2" transform="translate(-122 -555)">
    <g id="Rectangle_6" data-name="Rectangle 6" transform="translate(122 555)" fill="#fff" stroke="rgba(0,0,0,0.33)" stroke-width="2">
      <rect width="192" height="192" rx="27" stroke="none"/>
      <rect x="1" y="1" width="190" height="190" rx="26" fill="none"/>
    </g>
    <path id="Path_3" data-name="Path 3" d="M87.715,77.177q-21.635,0-39.229-8.6a66.12,66.12,0,0,1-27.76-25.023Q10.56,27.131,10.56,4.714q0-24.5,12.121-43.791A84.8,84.8,0,0,1,55-69.183,90.029,90.029,0,0,1,98.141-80q20.331,0,35.971,8.341a61.111,61.111,0,0,1,24.111,22.286,56.957,56.957,0,0,1,8.471,30.106,56.333,56.333,0,0,1-7.038,27.63,54.907,54.907,0,0,1-19.028,20.331,47.95,47.95,0,0,1-26.066,7.559q-7.82,0-11.99-4.04T98.4,20.875a31.225,31.225,0,0,1,1.043-8.08L104.4-10.143l7.559-3.389Q102.833,8.1,88.5,22.439T61.91,36.775a14.388,14.388,0,0,1-10.426-4.04q-4.171-4.04-4.171-12.381,0-14.858,8.732-29.585a81.783,81.783,0,0,1,21.5-24.241q12.772-9.514,24.241-9.514a17.188,17.188,0,0,1,10.166,3.128q4.431,3.128,5.213,9.644l-7.82-4.953a17.894,17.894,0,0,0,7.689-3.389q4.04-2.867,4.822-6.256a3.019,3.019,0,0,1,2.085-.521q3.128,0,2.607.782L115.866,13.837a28.969,28.969,0,0,0-.782,6.516q0,9.644,9.905,9.644,6.516,0,13.163-4.822T149.361,10.97q4.562-9.384,4.562-22.156a60.859,60.859,0,0,0-8.471-31.54,62.833,62.833,0,0,0-23.2-22.808A64.93,64.93,0,0,0,89.279-74q-19.81,0-34.407,9.775a62.1,62.1,0,0,0-22.156,26.2A85.609,85.609,0,0,0,25.157-1.8q0,21.113,8.862,37.014a60.516,60.516,0,0,0,25.154,24.5q16.291,8.6,37.665,8.6a84.635,84.635,0,0,0,22.286-2.737,76.315,76.315,0,0,0,21.244-10.035h.261q.521,0,1.173.912t.13,1.173q-13.554,11.208-26.848,15.379A90.9,90.9,0,0,1,87.715,77.177Zm-14.858-55q5.474,0,12.381-6.516A73.636,73.636,0,0,0,98.011-.89a66.9,66.9,0,0,0,7.95-19.94,28.687,28.687,0,0,0,.261-4.431,15.488,15.488,0,0,0-2.085-8.471A6.481,6.481,0,0,0,98.4-36.991q-9.644,0-18.637,11.86A66.46,66.46,0,0,0,67.644,2.629a45.66,45.66,0,0,0-1.3,9.905Q66.341,22.178,72.858,22.178Z" transform="translate(129.373 652.411)"/>
  </g>
</svg>
