<svg xmlns="http://www.w3.org/2000/svg" xmlns:xlink="http://www.w3.org/1999/xlink" width="256" height="256" viewBox="0 0 256 256">
  <defs>
    <linearGradient id="linear-gradient" x1="1.626" y1="1.598" x2="-0.596" y2="-0.558" gradientUnits="objectBoundingBox">
      <stop offset="0" stop-color="#f0ebe2"/>
      <stop offset="1" stop-color="#f0dbab"/>
    </linearGradient>
    <radialGradient id="radial-gradient" cx="0.5" cy="0.5" r="0.5" gradientUnits="objectBoundingBox">
      <stop offset="0" stop-color="#50ddff"/>
      <stop offset="1" stop-color="#d8abf0"/>
    </radialGradient>
    <linearGradient id="linear-gradient-2" x1="0.12" y1="1.867" x2="1.639" y2="-1.042" gradientUnits="objectBoundingBox">
      <stop offset="0" stop-color="#00ff1d" stop-opacity="0.329"/>
      <stop offset="0.596" stop-color="#bc72ea" stop-opacity="0.149"/>
      <stop offset="1" stop-color="#f0dbab" stop-opacity="0.502"/>
    </linearGradient>
    <linearGradient id="linear-gradient-3" x1="1.626" y1="1.598" x2="-0.596" y2="-0.558" gradientUnits="objectBoundingBox">
      <stop offset="0" stop-color="#50ddff"/>
      <stop offset="1" stop-color="#abf0cb"/>
    </linearGradient>
    <clipPath id="clip-path">
      <rect id="Rectangle_9" data-name="Rectangle 9" width="256" height="256" rx="39" stroke="#86550c" stroke-width="5" fill="url(#linear-gradient)" style="mix-blend-mode: multiply;isolation: isolate"/>
    </clipPath>
  </defs>
  <g id="Group_4" data-name="Group 4">
    <path id="Path_5" data-name="Path 5" d="M39,0H217a39,39,0,0,1,39,39V217a39,39,0,0,1-39,39H39A39,39,0,0,1,0,217V39A39,39,0,0,1,39,0Z" transform="translate(0 256) rotate(-90)" opacity="0.1" fill="url(#radial-gradient)" style="mix-blend-mode: multiply;isolation: isolate"/>
    <rect id="Rectangle_13" data-name="Rectangle 13" width="256" height="256" rx="39" transform="translate(256 256) rotate(-180)" opacity="0.1" fill="url(#radial-gradient)" style="mix-blend-mode: multiply;isolation: isolate"/>
    <rect id="Rectangle_14" data-name="Rectangle 14" width="256" height="256" rx="39" transform="translate(256) rotate(90)" opacity="0.075" fill="url(#radial-gradient)" style="mix-blend-mode: multiply;isolation: isolate"/>
    <g id="Rectangle_8" data-name="Rectangle 8" stroke="#86550c" stroke-width="5" opacity="0.088" fill="url(#linear-gradient-2)" style="mix-blend-mode: multiply;isolation: isolate">
      <rect width="256" height="256" rx="39" stroke="none"/>
      <rect x="2.5" y="2.5" width="251" height="251" rx="36.5" fill="none"/>
    </g>
    <rect id="Rectangle_7" data-name="Rectangle 7" width="256" height="256" rx="39" fill="url(#linear-gradient-3)" style="mix-blend-mode: multiply;isolation: isolate"/>
    <rect id="Rectangle_11" data-name="Rectangle 11" width="256" height="256" rx="39" transform="translate(256 256) rotate(180)" fill="url(#linear-gradient-3)" style="mix-blend-mode: multiply;isolation: isolate"/>
    <rect id="Rectangle_10" data-name="Rectangle 10" width="256" height="256" rx="39" opacity="0.281" fill="url(#radial-gradient)" style="mix-blend-mode: multiply;isolation: isolate"/>
    <path id="Rectangle_7_-_Outline" data-name="Rectangle 7 - Outline" d="M39,5A33.967,33.967,0,0,0,5,39V217a33.967,33.967,0,0,0,34,34H217a33.967,33.967,0,0,0,34-34V39A33.967,33.967,0,0,0,217,5H39m0-5H217a39,39,0,0,1,39,39V217a39,39,0,0,1-39,39H39A39,39,0,0,1,0,217V39A39,39,0,0,1,39,0Z" fill="rgba(0,0,0,0.33)" opacity="0.004"/>
    <g id="Mask_Group_2" data-name="Mask Group 2" clip-path="url(#clip-path)">
      <path id="Path_4" data-name="Path 4" d="M34.832-42.668H80.025l1.194,3.411H33.127ZM119.249,5.594q.682,0,.682,1.023t-.682,1.023q-3.24,0-10.062-.341T99.3,6.959q-3.752,0-9.55.341-5.457.341-8.356.341-.682,0-.682-1.023t.682-1.023q6.48,0,9.294-1.194A4.281,4.281,0,0,0,93.5.137a19.357,19.357,0,0,0-2.046-7.163L53.591-87.008,57.855-92.3,24.77-14.018a26.407,26.407,0,0,0-2.388,9.55q0,10.062,16.713,10.062.853,0,.853,1.023T39.1,7.641q-3.07,0-8.868-.341-6.48-.341-11.256-.341-4.434,0-10.232.341-5.116.341-8.527.341-.853,0-.853-1.023T.213,5.594A16.89,16.89,0,0,0,8.313,3.8a18.455,18.455,0,0,0,6.31-6.31,82.788,82.788,0,0,0,6.566-13.046l35.984-84.928a1.328,1.328,0,0,1,1.194-.512q.853,0,1.023.512L99.637-15.723q5.8,12.62,9.891,16.969A12.907,12.907,0,0,0,119.249,5.594Zm18.93,4.093q-7.163,0-11.767-3.24T121.807-4.3V-44.374a23.234,23.234,0,0,0-.6-6.31,3.6,3.6,0,0,0-2.3-2.473,19.582,19.582,0,0,0-5.8-.6q-.682,0-.682-1.108t.682-1.109q6.822-.171,11.085-3.667a13.589,13.589,0,0,0,4.946-9.294q0-.512,1.364-.512,1.194,0,1.194.512V-10.1q0,13.814,13.473,13.814a20.8,20.8,0,0,0,13.643-4.775l.341-.171a1.1,1.1,0,0,1,1.023.767q.341.767-.171,1.109a49.156,49.156,0,0,1-11.341,6.992A27.576,27.576,0,0,1,138.179,9.687Zm16.542-59.518A107.937,107.937,0,0,0,128.8-52.559v-3.752a256.211,256.211,0,0,0,26.6-1.705q.341,0,.767,1.279a8.854,8.854,0,0,1,.426,2.814,7.368,7.368,0,0,1-.6,2.814Q155.4-49.66,154.721-49.831Zm2.217,57.472q-.512,0-.512-1.023t.512-1.023a18.565,18.565,0,0,0,6.822-.938,5.411,5.411,0,0,0,3.07-3.411,24.216,24.216,0,0,0,.853-7.418V-94.342q0-6.139-1.194-8.868a4.284,4.284,0,0,0-4.263-2.729q-2.558,0-7.845,2.388h-.341q-.512,0-.767-.853t.256-1.023l21.829-10.4a1.9,1.9,0,0,1,.853-.171,1.6,1.6,0,0,1,1.023.426,1.22,1.22,0,0,1,.512.938V-6.173a25.8,25.8,0,0,0,.767,7.333A5.411,5.411,0,0,0,181.5,4.571a17.148,17.148,0,0,0,6.822,1.023q.512,0,.512,1.023t-.512,1.023q-3.752,0-6.139-.171l-9.55-.171-9.209.171Q161.031,7.641,156.938,7.641Zm77.084,1.023a3.027,3.027,0,0,1-1.364.341q-2.558,0-4.434-3.922a24.324,24.324,0,0,1-1.876-10.4V-37.552q0-19.1-10.744-19.1-5.8,0-8.783,3.837a21.041,21.041,0,0,0-4.008,8.783,14.354,14.354,0,0,1-1.961,5.116q-1.279,1.876-4.519,1.876a5.472,5.472,0,0,1-4.178-1.535,5.052,5.052,0,0,1-1.45-3.581q0-4.093,5.287-8.186a47.543,47.543,0,0,1,12.62-6.822,38.2,38.2,0,0,1,13.132-2.729q6.992,0,10.573,4.434t3.581,12.79v31.891q0,5.969,1.535,8.7A5.249,5.249,0,0,0,242.378.649,22.477,22.477,0,0,0,250.9-1.568h.341A.833.833,0,0,1,252.1-.8a.9.9,0,0,1-.512,1.109Zm-30.7.171q-6.31,0-9.806-3.326a11.148,11.148,0,0,1-3.5-8.442,11.653,11.653,0,0,1,4.093-8.868q4.093-3.752,13.473-7.163l20.465-7.674.512,2.217-18.077,6.992a17.412,17.412,0,0,0-6.907,4.349A8.715,8.715,0,0,0,201.449-7.2a9.709,9.709,0,0,0,2.643,6.907A9.04,9.04,0,0,0,211,2.525q3.411,0,8.186-2.729l10.744-6.48.341,2.217L217.65,3.718a40.192,40.192,0,0,1-7.5,3.922A19.574,19.574,0,0,1,203.325,8.835Zm52.014-56.619a12.04,12.04,0,0,0,3.922,9.465,56.343,56.343,0,0,0,11.6,7.418,99.488,99.488,0,0,1,9.294,5.287,20.575,20.575,0,0,1,5.713,5.8,15.323,15.323,0,0,1,2.388,8.7,19.163,19.163,0,0,1-6.48,14.666q-6.481,5.969-17.566,5.969A27.956,27.956,0,0,1,247.835,4.4a2.3,2.3,0,0,1-1.023-2.046l-.341-13.3q0-.512.938-.6t1.109.426q3.24,8.7,8.442,13.046a18.193,18.193,0,0,0,12.023,4.349q5.287,0,8.271-2.473t2.984-7.418a14.7,14.7,0,0,0-2.132-8.1A17.115,17.115,0,0,0,272.9-17q-3.07-1.961-8.356-4.69a77.744,77.744,0,0,1-8.953-4.946,19.586,19.586,0,0,1-5.628-5.8,16.077,16.077,0,0,1-2.3-8.868q0-9.209,6.907-14.069a27.574,27.574,0,0,1,16.286-4.86,29.736,29.736,0,0,1,12.449,2.558,2.34,2.34,0,0,1,1.279.767,2.133,2.133,0,0,1,.256,1.109q0,3.411-.171,5.287L284.5-43.35q0,.341-1.023.341t-1.023-.341q0-5.457-5.713-9.55a20.323,20.323,0,0,0-12.023-4.093,9.748,9.748,0,0,0-6.907,2.3Q255.339-52.389,255.339-47.784Z" transform="translate(-33.807 243)" fill="#0c3835"/>
    </g>
  </g>
  <g id="Group_5" data-name="Group 5">
    <rect id="Rectangle_7-2" data-name="Rectangle 7" width="256" height="256" rx="39" fill="none"/>
  </g>
</svg>
